<svg xmlns="http://www.w3.org/2000/svg" width="48.043" height="58" viewBox="0 0 48.043 58">
  <g id="wine-bottle" transform="translate(-30.002)">
    <path id="Path_327" data-name="Path 327" d="M47.061,13.94V0H36.826V13.94a9.878,9.878,0,0,1-2.912,7.031A13.267,13.267,0,0,0,30,30.413V58H53.884V30.413a13.267,13.267,0,0,0-3.911-9.443,9.878,9.878,0,0,1-2.912-7.031ZM43.649,3.412V6.824H40.237V3.412ZM33.414,34.118H43.649V44.353H33.414ZM50.473,54.588H33.414V47.765H47.061V30.706H33.414a9.952,9.952,0,0,1,2.912-7.323,13.267,13.267,0,0,0,3.911-9.443v-3.7h3.412v3.7a13.267,13.267,0,0,0,3.911,9.443,9.877,9.877,0,0,1,2.912,7.031Z" fill="#720404"/>
    <path id="Path_328" data-name="Path 328" d="M331.966,193.5,330.91,180h-16.8l-1.056,13.5a9.5,9.5,0,0,0,7.751,10.188v10.426h-3.412v3.412h10.235v-3.412h-3.412V203.692A9.5,9.5,0,0,0,331.966,193.5Zm-4.211-10.093.485,6.206a48.891,48.891,0,0,0-11.38-1.055l.4-5.152Zm-5.246,17.024a6.079,6.079,0,0,1-6.058-6.634l.141-1.8a45.436,45.436,0,0,1,11.924,1.149l.051.654A6.079,6.079,0,0,1,322.509,200.435Z" transform="translate(-253.96 -159.529)" fill="#720404"/>
  </g>
</svg>
